# xmcd
# Copyright (C) 1995-1998 Ti Kan
#
# Track frame offsets:
#       150
#       16163
#       32989
#       55805
#       76658
#       92579
#       111465
#       129342
#       145870
#       163224
#       179053
#       194752
#
# Disc length: 2835 seconds
#
# Revision: 0
# Processed by: cddbd v1.5.2PL0 Copyright (c) Steve Scherf et al.
# Submitted via: CD-Import v1.0
#
DISCID=a50b110c
DTITLE=Various Artist - Eclectrik
DYEAR=07
DGENRE=
TTITLE0=Dodo - Electric Love
TTITLE1=The Lovers - La Degustation
TTITLE2=Foxgluv - Xxx Files
TTITLE3=Product. 01 - Hot Trap
TTITLE4=Lemon - Batman
TTITLE5=The Voodoo Trombone Quartet - The Phantom
TTITLE6=The Voodoo Trombone Quartet - Major Taylor - Bicyclist
TTITLE7=Lodekka - Yes Mr. B
TTITLE8=Lemon - Let's Go!
TTITLE9=Stereo De Luxe - Sexuality In The Eighties
TTITLE10=The Pinker Tones - Sonido Total
TTITLE11=Trevira Modern - Dakkaragada
EXTD=
EXTT0=
EXTT1=
EXTT2=
EXTT3=
EXTT4=
EXTT5=
EXTT6=
EXTT7=
EXTT8=
EXTT9=
EXTT10=
EXTT11=
PLAYORDER=
